<svg id="SvgjsSvg1006" width="1367.6625061035156" height="598.9875335693359" xmlns="http://www.w3.org/2000/svg" version="1.1" xmlns:xlink="http://www.w3.org/1999/xlink" xmlns:svgjs="http://svgjs.com/svgjs"><defs id="SvgjsDefs1007"><marker id="SvgjsMarker1032" markerWidth="14" markerHeight="10" refX="10" refY="5" viewBox="0 0 14 10" orient="auto" markerUnits="userSpaceOnUse" stroke-dasharray="0,0"><path id="SvgjsPath1033" d="M0,0 L14,5 L0,10 L0,0" fill="#323232" stroke="#323232" stroke-width="1"></path></marker><marker id="SvgjsMarker1036" markerWidth="14" markerHeight="10" refX="10" refY="5" viewBox="0 0 14 10" orient="auto" markerUnits="userSpaceOnUse" stroke-dasharray="0,0"><path id="SvgjsPath1037" d="M0,0 L14,5 L0,10 L0,0" fill="#323232" stroke="#323232" stroke-width="1"></path></marker><marker id="SvgjsMarker1040" markerWidth="14" markerHeight="10" refX="10" refY="5" viewBox="0 0 14 10" orient="auto" markerUnits="userSpaceOnUse" stroke-dasharray="0,0"><path id="SvgjsPath1041" d="M0,0 L14,5 L0,10 L0,0" fill="#323232" stroke="#323232" stroke-width="1"></path></marker><marker id="SvgjsMarker1061" markerWidth="14" markerHeight="10" refX="10" refY="5" viewBox="0 0 14 10" orient="auto" markerUnits="userSpaceOnUse" stroke-dasharray="0,0"><path id="SvgjsPath1062" d="M0,0 L14,5 L0,10 L0,0" fill="#323232" stroke="#323232" stroke-width="1"></path></marker><marker id="SvgjsMarker1069" markerWidth="14" markerHeight="10" refX="10" refY="5" viewBox="0 0 14 10" orient="auto" markerUnits="userSpaceOnUse" stroke-dasharray="0,0"><path id="SvgjsPath1070" d="M0,0 L14,5 L0,10 L0,0" fill="#323232" stroke="#323232" stroke-width="1"></path></marker><marker id="SvgjsMarker1073" markerWidth="14" markerHeight="10" refX="10" refY="5" viewBox="0 0 14 10" orient="auto" markerUnits="userSpaceOnUse" stroke-dasharray="0,0"><path id="SvgjsPath1074" d="M0,0 L14,5 L0,10 L0,0" fill="#323232" stroke="#323232" stroke-width="1"></path></marker><marker id="SvgjsMarker1081" markerWidth="14" markerHeight="10" refX="10" refY="5" viewBox="0 0 14 10" orient="auto" markerUnits="userSpaceOnUse" stroke-dasharray="0,0"><path id="SvgjsPath1082" d="M0,0 L14,5 L0,10 L0,0" fill="#323232" stroke="#323232" stroke-width="1"></path></marker><marker id="SvgjsMarker1100" markerWidth="14" markerHeight="10" refX="10" refY="5" viewBox="0 0 14 10" orient="auto" markerUnits="userSpaceOnUse" stroke-dasharray="0,0"><path id="SvgjsPath1101" d="M0,0 L14,5 L0,10 L0,0" fill="#323232" stroke="#323232" stroke-width="1"></path></marker><marker id="SvgjsMarker1110" markerWidth="14" markerHeight="10" refX="10" refY="5" viewBox="0 0 14 10" orient="auto" markerUnits="userSpaceOnUse" stroke-dasharray="0,0"><path id="SvgjsPath1111" d="M0,0 L14,5 L0,10 L0,0" fill="#323232" stroke="#323232" stroke-width="1"></path></marker><marker id="SvgjsMarker1114" markerWidth="14" markerHeight="10" refX="10" refY="5" viewBox="0 0 14 10" orient="auto" markerUnits="userSpaceOnUse" stroke-dasharray="0,0"><path id="SvgjsPath1115" d="M0,0 L14,5 L0,10 L0,0" fill="#323232" stroke="#323232" stroke-width="1"></path></marker><marker id="SvgjsMarker1118" markerWidth="14" markerHeight="10" refX="10" refY="5" viewBox="0 0 14 10" orient="auto" markerUnits="userSpaceOnUse" stroke-dasharray="0,0"><path id="SvgjsPath1119" d="M0,0 L14,5 L0,10 L0,0" fill="#323232" stroke="#323232" stroke-width="1"></path></marker><marker id="SvgjsMarker1126" markerWidth="14" markerHeight="10" refX="10" refY="5" viewBox="0 0 14 10" orient="auto" markerUnits="userSpaceOnUse" stroke-dasharray="0,0"><path id="SvgjsPath1127" d="M0,0 L14,5 L0,10 L0,0" fill="#323232" stroke="#323232" stroke-width="1"></path></marker><marker id="SvgjsMarker1145" markerWidth="14" markerHeight="10" refX="10" refY="5" viewBox="0 0 14 10" orient="auto" markerUnits="userSpaceOnUse" stroke-dasharray="0,0"><path id="SvgjsPath1146" d="M0,0 L14,5 L0,10 L0,0" fill="#323232" stroke="#323232" stroke-width="1"></path></marker><marker id="SvgjsMarker1161" markerWidth="14" markerHeight="10" refX="10" refY="5" viewBox="0 0 14 10" orient="auto" markerUnits="userSpaceOnUse" stroke-dasharray="0,0"><path id="SvgjsPath1162" d="M0,0 L14,5 L0,10 L0,0" fill="#323232" stroke="#323232" stroke-width="1"></path></marker><marker id="SvgjsMarker1165" markerWidth="14" markerHeight="10" refX="10" refY="5" viewBox="0 0 14 10" orient="auto" markerUnits="userSpaceOnUse" stroke-dasharray="0,0"><path id="SvgjsPath1166" d="M0,0 L14,5 L0,10 L0,0" fill="#323232" stroke="#323232" stroke-width="1"></path></marker><marker id="SvgjsMarker1169" markerWidth="14" markerHeight="10" refX="10" refY="5" viewBox="0 0 14 10" orient="auto" markerUnits="userSpaceOnUse" stroke-dasharray="0,0"><path id="SvgjsPath1170" d="M0,0 L14,5 L0,10 L0,0" fill="#323232" stroke="#323232" stroke-width="1"></path></marker><marker id="SvgjsMarker1188" markerWidth="14" markerHeight="10" refX="10" refY="5" viewBox="0 0 14 10" orient="auto" markerUnits="userSpaceOnUse" stroke-dasharray="0,0"><path id="SvgjsPath1189" d="M0,0 L14,5 L0,10 L0,0" fill="#323232" stroke="#323232" stroke-width="1"></path></marker><marker id="SvgjsMarker1208" markerWidth="14" markerHeight="10" refX="10" refY="5" viewBox="0 0 14 10" orient="auto" markerUnits="userSpaceOnUse" stroke-dasharray="0,0"><path id="SvgjsPath1209" d="M0,0 L14,5 L0,10 L0,0" fill="#323232" stroke="#323232" stroke-width="1"></path></marker><marker id="SvgjsMarker1216" markerWidth="14" markerHeight="10" refX="10" refY="5" viewBox="0 0 14 10" orient="auto" markerUnits="userSpaceOnUse" stroke-dasharray="0,0"><path id="SvgjsPath1217" d="M0,0 L14,5 L0,10 L0,0" fill="#323232" stroke="#323232" stroke-width="1"></path></marker><marker id="SvgjsMarker1220" markerWidth="14" markerHeight="10" refX="10" refY="5" viewBox="0 0 14 10" orient="auto" markerUnits="userSpaceOnUse" stroke-dasharray="0,0"><path id="SvgjsPath1221" d="M0,0 L14,5 L0,10 L0,0" fill="#323232" stroke="#323232" stroke-width="1"></path></marker><marker id="SvgjsMarker1235" markerWidth="14" markerHeight="10" refX="10" refY="5" viewBox="0 0 14 10" orient="auto" markerUnits="userSpaceOnUse" stroke-dasharray="0,0"><path id="SvgjsPath1236" d="M0,0 L14,5 L0,10 L0,0" fill="#323232" stroke="#323232" stroke-width="1"></path></marker><marker id="SvgjsMarker1239" markerWidth="14" markerHeight="10" refX="10" refY="5" viewBox="0 0 14 10" orient="auto" markerUnits="userSpaceOnUse" stroke-dasharray="0,0"><path id="SvgjsPath1240" d="M0,0 L14,5 L0,10 L0,0" fill="#323232" stroke="#323232" stroke-width="1"></path></marker><marker id="SvgjsMarker1243" markerWidth="14" markerHeight="10" refX="10" refY="5" viewBox="0 0 14 10" orient="auto" markerUnits="userSpaceOnUse" stroke-dasharray="0,0"><path id="SvgjsPath1244" d="M0,0 L14,5 L0,10 L0,0" fill="#323232" stroke="#323232" stroke-width="1"></path></marker><marker id="SvgjsMarker1247" markerWidth="14" markerHeight="10" refX="10" refY="5" viewBox="0 0 14 10" orient="auto" markerUnits="userSpaceOnUse" stroke-dasharray="0,0"><path id="SvgjsPath1248" d="M0,0 L14,5 L0,10 L0,0" fill="#323232" stroke="#323232" stroke-width="1"></path></marker><marker id="SvgjsMarker1251" markerWidth="14" markerHeight="10" refX="10" refY="5" viewBox="0 0 14 10" orient="auto" markerUnits="userSpaceOnUse" stroke-dasharray="0,0"><path id="SvgjsPath1252" d="M0,0 L14,5 L0,10 L0,0" fill="#323232" stroke="#323232" stroke-width="1"></path></marker><marker id="SvgjsMarker1288" markerWidth="14" markerHeight="10" refX="10" refY="5" viewBox="0 0 14 10" orient="auto" markerUnits="userSpaceOnUse" stroke-dasharray="0,0"><path id="SvgjsPath1289" d="M0,0 L14,5 L0,10 L0,0" fill="#323232" stroke="#323232" stroke-width="1"></path></marker><marker id="SvgjsMarker1292" markerWidth="14" markerHeight="10" refX="10" refY="5" viewBox="0 0 14 10" orient="auto" markerUnits="userSpaceOnUse" stroke-dasharray="0,0"><path id="SvgjsPath1293" d="M0,0 L14,5 L0,10 L0,0" fill="#323232" stroke="#323232" stroke-width="1"></path></marker><marker id="SvgjsMarker1301" markerWidth="14" markerHeight="10" refX="10" refY="5" viewBox="0 0 14 10" orient="auto" markerUnits="userSpaceOnUse" stroke-dasharray="0,0"><path id="SvgjsPath1302" d="M0,0 L14,5 L0,10 L0,0" fill="#323232" stroke="#323232" stroke-width="1"></path></marker><marker id="SvgjsMarker1389" markerWidth="14" markerHeight="10" refX="10" refY="5" viewBox="0 0 14 10" orient="auto" markerUnits="userSpaceOnUse" stroke-dasharray="0,0"><path id="SvgjsPath1390" d="M0,0 L14,5 L0,10 L0,0" fill="#323232" stroke="#323232" stroke-width="1"></path></marker></defs><g id="SvgjsG1008" transform="translate(25.012466430664055,437.9874954223632)"><path id="SvgjsPath1009" d="M 0 0L 70 0L 70 70L 0 70Z" stroke="rgba(50,50,50,1)" stroke-width="2" fill-opacity="1" fill="#ffffff"></path><g id="SvgjsG1010"><text id="SvgjsText1011" font-family="微软雅黑" text-anchor="middle" font-size="13px" width="50px" fill="#323232" font-weight="400" align="middle" lineHeight="125%" anchor="middle" family="微软雅黑" size="13px" weight="400" font-style="" opacity="1" y="25.375" transform="rotate(0)"><tspan id="SvgjsTspan1012" dy="16" x="35"><tspan id="SvgjsTspan1013" style="text-decoration:;">用户</tspan></tspan></text></g></g><g id="SvgjsG1014" transform="translate(250.2324016989968,163.48749542236328)"><path id="SvgjsPath1015" d="M 0 4Q 0 0 4 0L 113 0Q 117 0 117 4L 117 71Q 117 75 113 75L 4 75Q 0 75 0 71Z" stroke="rgba(50,50,50,1)" stroke-width="2" fill-opacity="1" fill="#ffffff"></path><path id="SvgjsPath1016" d="M 0 30L 117 30" stroke="rgba(50,50,50,1)" stroke-width="2" fill="none"></path><path id="SvgjsPath1017" d="M 0 0L 117 0L 117 75L 0 75Z" stroke="none" fill="none"></path><g id="SvgjsG1018"><text id="SvgjsText1019" font-family="微软雅黑" text-anchor="middle" font-size="13px" width="97px" fill="#323232" font-weight="700" align="middle" lineHeight="125%" anchor="middle" family="微软雅黑" size="13px" weight="700" font-style="" opacity="1" y="5.375" transform="rotate(0)"></text></g><g id="SvgjsG1020"><text id="SvgjsText1021" font-family="微软雅黑" text-anchor="start" font-size="13px" width="97px" fill="#323232" font-weight="400" align="middle" lineHeight="125%" anchor="start" family="微软雅黑" size="13px" weight="400" font-style="" opacity="1" y="42.875" transform="rotate(0)"><tspan id="SvgjsTspan1022" dy="16" x="10"><tspan id="SvgjsTspan1023" style="text-decoration:;">用户界面</tspan></tspan></text></g></g><g id="SvgjsG1024" transform="translate(104.35185576157498,181.98749542236328)"><path id="SvgjsPath1025" d="M 0 0L 105 0L 105 38L 0 38Z" stroke="rgba(50,50,50,1)" stroke-width="2" fill-opacity="1" fill="#ffffff"></path><g id="SvgjsG1026"><text id="SvgjsText1027" font-family="微软雅黑" text-anchor="middle" font-size="13px" width="85px" fill="#323232" font-weight="400" align="middle" lineHeight="125%" anchor="middle" family="微软雅黑" size="13px" weight="400" font-style="" opacity="1" y="9.375" transform="rotate(0)"><tspan id="SvgjsTspan1028" dy="16" x="52.5"><tspan id="SvgjsTspan1029" style="text-decoration:;">航班信息</tspan></tspan></text></g></g><g id="SvgjsG1030"><path id="SvgjsPath1031" d="M249.2324016989968 200.01394593430865L226.32760635631007 200.01394593430865L226.32760635631007 200.01394593430865L206.02281101362328 200.01394593430865" stroke="#323232" stroke-width="2" fill="none" marker-end="url(#SvgjsMarker1032)"></path></g><g id="SvgjsG1034"><path id="SvgjsPath1035" d="M96.01246643066406 446.48749923706055L255.31131040266 446.48749923706055L255.31131040266 240.34470945646623" stroke="#323232" stroke-width="2" fill="none" marker-end="url(#SvgjsMarker1036)"></path></g><g id="SvgjsG1038"><path id="SvgjsPath1039" d="M59.337300768880965 504.88254661690235L59.337300768880965 538.9874954223633L150.81247558593753 538.9874954223633" stroke="#323232" stroke-width="2" fill="none" marker-end="url(#SvgjsMarker1040)"></path><rect id="SvgjsRect1042" width="39" height="32" x="68.52241377467878" y="522.9874954223633" fill="#ffffff"></rect><text id="SvgjsText1043" font-family="微软雅黑" text-anchor="middle" font-size="13px" width="39px" fill="#323232" font-weight="400" align="top" lineHeight="16px" anchor="middle" family="微软雅黑" size="13px" weight="400" font-style="" opacity="1" y="521.3624954223633" transform="rotate(0)"><tspan id="SvgjsTspan1044" dy="16" x="88.02241377467878"><tspan id="SvgjsTspan1045" style="text-decoration:;">用户名</tspan></tspan><tspan id="SvgjsTspan1046" dy="16" x="88.02241377467878"><tspan id="SvgjsTspan1047" style="text-decoration:;">，密码</tspan></tspan></text></g><g id="SvgjsG1048" transform="translate(407.6624755859375,550.6368128285067)"><path id="SvgjsPath1049" d="M 0 0L 93 0L 0 0M 0 20L 93 20L 0 20Z" stroke="rgba(50,50,50,1)" stroke-width="2" fill-opacity="1" fill="#ffffff"></path><path id="SvgjsPath1050" d="M 0 0L 93 0L 93 20L 0 20L 0 0Z" stroke="none" fill="none"></path><g id="SvgjsG1051"><text id="SvgjsText1052" font-family="微软雅黑" text-anchor="middle" font-size="13px" width="73px" fill="#323232" font-weight="400" align="middle" lineHeight="125%" anchor="middle" family="微软雅黑" size="13px" weight="400" font-style="" opacity="1" y="0.375" transform="rotate(0)"></text></g></g><g id="SvgjsG1053" transform="translate(395.6624755859375,519.9874954223633)"><path id="SvgjsPath1054" d="M 0 0L 117 0L 117 38L 0 38Z" stroke="none" fill="none"></path><g id="SvgjsG1055"><text id="SvgjsText1056" font-family="微软雅黑" text-anchor="middle" font-size="13px" width="117px" fill="#323232" font-weight="400" align="middle" lineHeight="125%" anchor="middle" family="微软雅黑" size="13px" weight="400" font-style="" opacity="1" y="9.375" transform="rotate(0)"><tspan id="SvgjsTspan1057" dy="16" x="58.5"><tspan id="SvgjsTspan1058" style="text-decoration:;">用户数据库</tspan></tspan></text></g></g><g id="SvgjsG1059"><path id="SvgjsPath1060" d="M96.01246643066406 472.9874954223632L286.12257630256585 472.9874954223632L286.12257630256585 384.139036133131" stroke="#323232" stroke-width="2" fill="none" marker-end="url(#SvgjsMarker1061)"></path><rect id="SvgjsRect1063" width="65" height="16" x="202.99175101123106" y="464.9874954223632" fill="#ffffff"></rect><text id="SvgjsText1064" font-family="微软雅黑" text-anchor="middle" font-size="13px" width="65px" fill="#323232" font-weight="400" align="top" lineHeight="16px" anchor="middle" family="微软雅黑" size="13px" weight="400" font-style="" opacity="1" y="463.3624954223632" transform="rotate(0)"><tspan id="SvgjsTspan1065" dy="16" x="235.49175101123106"><tspan id="SvgjsTspan1066" style="text-decoration:;">账号，密码</tspan></tspan></text></g><g id="SvgjsG1067"><path id="SvgjsPath1068" d="M308.7324016989968 313.98749542236317L308.7324016989968 276.7374954223632L308.7324016989968 276.7374954223632L308.7324016989968 242.0874954223633" stroke="#323232" stroke-width="2" fill="none" marker-end="url(#SvgjsMarker1069)"></path></g><g id="SvgjsG1071"><path id="SvgjsPath1072" d="M216.95492003203879 560.0706282127805L311.80869780898814 560.0706282127805L311.80869780898814 560.0706282127805L404.0624755859375 560.0706282127805" stroke="#323232" stroke-width="2" fill="none" marker-end="url(#SvgjsMarker1073)"></path><rect id="SvgjsRect1075" width="52" height="16" x="284.50869780898813" y="552.0706282127805" fill="#ffffff"></rect><text id="SvgjsText1076" font-family="微软雅黑" text-anchor="middle" font-size="13px" width="52px" fill="#323232" font-weight="400" align="top" lineHeight="16px" anchor="middle" family="微软雅黑" size="13px" weight="400" font-style="" opacity="1" y="550.4456282127805" transform="rotate(0)"><tspan id="SvgjsTspan1077" dy="16" x="310.50869780898813"><tspan id="SvgjsTspan1078" style="text-decoration:;">用户数据</tspan></tspan></text></g><g id="SvgjsG1079"><path id="SvgjsPath1080" d="M368.2324016989968 200.9874954223633L440.69743864246715 200.9874954223633L440.69743864246715 200.9874954223633L510.5624755859375 200.9874954223633" stroke="#323232" stroke-width="2" fill="none" marker-end="url(#SvgjsMarker1081)"></path><rect id="SvgjsRect1083" width="52" height="16" x="413.39743864246714" y="192.9874954223633" fill="#ffffff"></rect><text id="SvgjsText1084" font-family="微软雅黑" text-anchor="middle" font-size="13px" width="52px" fill="#323232" font-weight="400" align="top" lineHeight="16px" anchor="middle" family="微软雅黑" size="13px" weight="400" font-style="" opacity="1" y="191.3624954223633" transform="rotate(0)"><tspan id="SvgjsTspan1085" dy="16" x="439.39743864246714"><tspan id="SvgjsTspan1086" style="text-decoration:;">订单信息</tspan></tspan></text></g><g id="SvgjsG1087" transform="translate(502.6624755859375,307.8979049786773)"><path id="SvgjsPath1088" d="M 0 0L 93 0L 0 0M 0 20L 93 20L 0 20Z" stroke="rgba(50,50,50,1)" stroke-width="2" fill-opacity="1" fill="#ffffff"></path><path id="SvgjsPath1089" d="M 0 0L 93 0L 93 20L 0 20L 0 0Z" stroke="none" fill="none"></path><g id="SvgjsG1090"><text id="SvgjsText1091" font-family="微软雅黑" text-anchor="middle" font-size="13px" width="73px" fill="#323232" font-weight="400" align="middle" lineHeight="125%" anchor="middle" family="微软雅黑" size="13px" weight="400" font-style="" opacity="1" y="0.375" transform="rotate(0)"></text></g></g><g id="SvgjsG1092" transform="translate(490.6624755859375,276.9874954223633)"><path id="SvgjsPath1093" d="M 0 0L 117 0L 117 38L 0 38Z" stroke="none" fill="none"></path><g id="SvgjsG1094"><text id="SvgjsText1095" font-family="微软雅黑" text-anchor="middle" font-size="13px" width="117px" fill="#323232" font-weight="400" align="middle" lineHeight="125%" anchor="middle" family="微软雅黑" size="13px" weight="400" font-style="" opacity="1" y="9.375" transform="rotate(0)"><tspan id="SvgjsTspan1096" dy="16" x="58.5"><tspan id="SvgjsTspan1097" style="text-decoration:;">订单数据</tspan></tspan></text></g></g><g id="SvgjsG1098"><path id="SvgjsPath1099" d="M549.1624755859375 236.9874954223633L549.1624755859375 256.4874954223633L549.1624755859375 256.4874954223633L549.1624755859375 273.38749542236326" stroke="#323232" stroke-width="2" fill="none" marker-end="url(#SvgjsMarker1100)"></path></g><g id="SvgjsG1102" transform="translate(337.5891395079712,471.9874954223633)"><path id="SvgjsPath1103" d="M 0 0L 83.36031196424108 0L 83.36031196424108 38L 0 38Z" stroke="rgba(50,50,50,1)" stroke-width="2" fill-opacity="1" fill="#ffffff"></path><g id="SvgjsG1104"><text id="SvgjsText1105" font-family="微软雅黑" text-anchor="middle" font-size="13px" width="64px" fill="#323232" font-weight="400" align="middle" lineHeight="125%" anchor="middle" family="微软雅黑" size="13px" weight="400" font-style="" opacity="1" y="9.375" transform="rotate(0)"><tspan id="SvgjsTspan1106" dy="16" x="42"><tspan id="SvgjsTspan1107" style="text-decoration:;">账户信息</tspan></tspan></text></g></g><g id="SvgjsG1108"><path id="SvgjsPath1109" d="M394.6624755859375 538.9874954223633L378.0313686937026 538.9874954223633L378.0313686937026 509.0874954223633" stroke="#323232" stroke-width="2" fill="none" marker-end="url(#SvgjsMarker1110)"></path></g><g id="SvgjsG1112"><path id="SvgjsPath1113" d="M340.0706360070157 466.4874954223633L340.0706360070157 423.94623145234664L318.7874755859375 423.94623145234664L318.7874755859375 384.00496748233" stroke="#323232" stroke-width="2" fill="none" marker-end="url(#SvgjsMarker1114)"></path></g><g id="SvgjsG1116"><path id="SvgjsPath1117" d="M420.9494514722123 489.9874954223633L420.9494514722123 486.4874954223633L420.9494514722123 417.5874954223633" stroke="#323232" stroke-width="2" fill="none" marker-end="url(#SvgjsMarker1118)"></path><rect id="SvgjsRect1120" width="91" height="16" x="375.4494514722122" y="445.78749542236324" fill="#ffffff"></rect><text id="SvgjsText1121" font-family="微软雅黑" text-anchor="middle" font-size="13px" width="91px" fill="#323232" font-weight="400" align="top" lineHeight="16px" anchor="middle" family="微软雅黑" size="13px" weight="400" font-style="" opacity="1" y="444.16249542236324" transform="rotate(0)"><tspan id="SvgjsTspan1122" dy="16" x="420.9494514722122"><tspan id="SvgjsTspan1123" style="text-decoration:;">姓名，身份证号</tspan></tspan></text></g><g id="SvgjsG1124"><path id="SvgjsPath1125" d="M548.2073079615412 359.6914298733624C 411.41248321533203 324.7374973297119 487.37357458131027 266.15966660283794 520.6955697788119 226.31819391860176" stroke="#323232" stroke-width="2" fill="none" marker-end="url(#SvgjsMarker1126)"></path><rect id="SvgjsRect1128" width="78" height="16" x="431.657631391285" y="286.8376394487017" fill="#ffffff"></rect><text id="SvgjsText1129" font-family="微软雅黑" text-anchor="middle" font-size="13px" width="78px" fill="#323232" font-weight="400" align="top" lineHeight="16px" anchor="middle" family="微软雅黑" size="13px" weight="400" font-style="" opacity="1" y="285.2126394487017" transform="rotate(0)"><tspan id="SvgjsTspan1130" dy="16" x="470.657631391285"><tspan id="SvgjsTspan1131" style="text-decoration:;">订单积分优惠</tspan></tspan></text></g><g id="SvgjsG1132" transform="translate(502.6624755859375,392.9874954223633)"><path id="SvgjsPath1133" d="M 0 0L 93 0L 0 0M 0 20L 93 20L 0 20Z" stroke="rgba(50,50,50,1)" stroke-width="2" fill-opacity="1" fill="#ffffff"></path><path id="SvgjsPath1134" d="M 0 0L 93 0L 93 20L 0 20L 0 0Z" stroke="none" fill="none"></path><g id="SvgjsG1135"><text id="SvgjsText1136" font-family="微软雅黑" text-anchor="middle" font-size="13px" width="73px" fill="#323232" font-weight="400" align="middle" lineHeight="125%" anchor="middle" family="微软雅黑" size="13px" weight="400" font-style="" opacity="1" y="0.375" transform="rotate(0)"></text></g></g><g id="SvgjsG1137" transform="translate(490.66247558593756,359.9874954223633)"><path id="SvgjsPath1138" d="M 0 0L 117 0L 117 38L 0 38Z" stroke="none" fill="none"></path><g id="SvgjsG1139"><text id="SvgjsText1140" font-family="微软雅黑" text-anchor="middle" font-size="13px" width="117px" fill="#323232" font-weight="400" align="middle" lineHeight="125%" anchor="middle" family="微软雅黑" size="13px" weight="400" font-style="" opacity="1" y="9.375" transform="rotate(0)"><tspan id="SvgjsTspan1141" dy="16" x="58.5"><tspan id="SvgjsTspan1142" style="text-decoration:;">会员数据</tspan></tspan></text></g></g><g id="SvgjsG1143"><path id="SvgjsPath1144" d="M457.6624755859375 378.9874954223633L473.6624755859375 378.9874954223633L473.6624755859375 378.9874954223633L487.06247558593753 378.9874954223633" stroke="#323232" stroke-width="2" fill="none" marker-end="url(#SvgjsMarker1145)"></path></g><g id="SvgjsG1147" transform="translate(181.35121271158206,87.98749542236328)"><path id="SvgjsPath1148" d="M 0 0L 105 0L 105 38L 0 38Z" stroke="rgba(50,50,50,1)" stroke-width="2" fill-opacity="1" fill="#ffffff"></path><g id="SvgjsG1149"><text id="SvgjsText1150" font-family="微软雅黑" text-anchor="middle" font-size="13px" width="85px" fill="#323232" font-weight="400" align="middle" lineHeight="125%" anchor="middle" family="微软雅黑" size="13px" weight="400" font-style="" opacity="1" y="9.375" transform="rotate(0)"><tspan id="SvgjsTspan1151" dy="16" x="52.5"><tspan id="SvgjsTspan1152" style="text-decoration:;">广告信息</tspan></tspan></text></g></g><g id="SvgjsG1153" transform="translate(299.27159070272205,87.98749542236328)"><path id="SvgjsPath1154" d="M 0 0L 105 0L 105 38L 0 38Z" stroke="rgba(50,50,50,1)" stroke-width="2" fill-opacity="1" fill="#ffffff"></path><g id="SvgjsG1155"><text id="SvgjsText1156" font-family="微软雅黑" text-anchor="middle" font-size="13px" width="85px" fill="#323232" font-weight="400" align="middle" lineHeight="125%" anchor="middle" family="微软雅黑" size="13px" weight="400" font-style="" opacity="1" y="9.375" transform="rotate(0)"><tspan id="SvgjsTspan1157" dy="16" x="52.5"><tspan id="SvgjsTspan1158" style="text-decoration:;">广播信息</tspan></tspan></text></g></g><g id="SvgjsG1159"><path id="SvgjsPath1160" d="M254.7065479232665 162.48749542236328L254.7065479232665 143.52730998808596L234.6754389410328 143.52730998808596L234.6754389410328 127.83749542236328" stroke="#323232" stroke-width="2" fill="none" marker-end="url(#SvgjsMarker1161)"></path></g><g id="SvgjsG1163"><path id="SvgjsPath1164" d="M329.6624526977539 162.48749542236328L329.6624526977539 143.61249542236328L352.5958169321728 143.61249542236328L352.5958169321728 127.83749542236328" stroke="#323232" stroke-width="2" fill="none" marker-end="url(#SvgjsMarker1165)"></path></g><g id="SvgjsG1167"><path id="SvgjsPath1168" d="M359.94983326174236 162.48749542236328L359.94983326174236 163.48749542236328L489.80615442384 140.23749923706055L616.0624755859375 140.23749923706055" stroke="#323232" stroke-width="2" fill="none" marker-end="url(#SvgjsMarker1169)"></path><rect id="SvgjsRect1171" width="52" height="16" x="463.80615442384" y="139.21249809265137" fill="#ffffff"></rect><text id="SvgjsText1172" font-family="微软雅黑" text-anchor="middle" font-size="13px" width="52px" fill="#323232" font-weight="400" align="top" lineHeight="16px" anchor="middle" family="微软雅黑" size="13px" weight="400" font-style="" opacity="1" y="137.58749809265137" transform="rotate(0)"><tspan id="SvgjsTspan1173" dy="16" x="489.80615442384"><tspan id="SvgjsTspan1174" style="text-decoration:;">留言信息</tspan></tspan></text></g><g id="SvgjsG1175" transform="translate(619.6624755859375,285.9874954223633)"><path id="SvgjsPath1176" d="M 0 0L 93 0L 0 0M 0 20L 93 20L 0 20Z" stroke="rgba(50,50,50,1)" stroke-width="2" fill-opacity="1" fill="#ffffff"></path><path id="SvgjsPath1177" d="M 0 0L 93 0L 93 20L 0 20L 0 0Z" stroke="none" fill="none"></path><g id="SvgjsG1178"><text id="SvgjsText1179" font-family="微软雅黑" text-anchor="middle" font-size="13px" width="73px" fill="#323232" font-weight="400" align="middle" lineHeight="125%" anchor="middle" family="微软雅黑" size="13px" weight="400" font-style="" opacity="1" y="0.375" transform="rotate(0)"></text></g></g><g id="SvgjsG1180" transform="translate(607.6624755859375,252.98749542236328)"><path id="SvgjsPath1181" d="M 0 0L 117 0L 117 38L 0 38Z" stroke="none" fill="none"></path><g id="SvgjsG1182"><text id="SvgjsText1183" font-family="微软雅黑" text-anchor="middle" font-size="13px" width="117px" fill="#323232" font-weight="400" align="middle" lineHeight="125%" anchor="middle" family="微软雅黑" size="13px" weight="400" font-style="" opacity="1" y="9.375" transform="rotate(0)"><tspan id="SvgjsTspan1184" dy="16" x="58.5"><tspan id="SvgjsTspan1185" style="text-decoration:;">留言数据</tspan></tspan></text></g></g><g id="SvgjsG1186"><path id="SvgjsPath1187" d="M654.6624755859376 176.23749923706055L654.6624755859376 214.1124973297119L666.1624755859375 214.1124973297119L666.1624755859375 249.38749542236326" stroke="#323232" stroke-width="2" fill="none" marker-end="url(#SvgjsMarker1188)"></path></g><g id="SvgjsG1190" transform="translate(1249.6624755859375,242.48749542236328)"><path id="SvgjsPath1191" d="M 0 4Q 0 0 4 0L 89 0Q 93 0 93 4L 93 71Q 93 75 89 75L 4 75Q 0 75 0 71Z" stroke="rgba(50,50,50,1)" stroke-width="2" fill-opacity="1" fill="#ffffff"></path><path id="SvgjsPath1192" d="M 0 30L 93 30" stroke="rgba(50,50,50,1)" stroke-width="2" fill="none"></path><path id="SvgjsPath1193" d="M 0 0L 93 0L 93 75L 0 75Z" stroke="none" fill="none"></path><g id="SvgjsG1194"><text id="SvgjsText1195" font-family="微软雅黑" text-anchor="middle" font-size="13px" width="73px" fill="#323232" font-weight="700" align="middle" lineHeight="125%" anchor="middle" family="微软雅黑" size="13px" weight="700" font-style="" opacity="1" y="5.375" transform="rotate(0)"></text></g><g id="SvgjsG1196"><text id="SvgjsText1197" font-family="微软雅黑" text-anchor="start" font-size="13px" width="73px" fill="#323232" font-weight="400" align="middle" lineHeight="125%" anchor="start" family="微软雅黑" size="13px" weight="400" font-style="" opacity="1" y="42.875" transform="rotate(0)"><tspan id="SvgjsTspan1198" dy="16" x="10"><tspan id="SvgjsTspan1199" style="text-decoration:;">管理员界面</tspan></tspan></text></g></g><g id="SvgjsG1200" transform="translate(1261.1624755859375,480.9874954223633)"><path id="SvgjsPath1201" d="M 0 0L 70 0L 70 70L 0 70Z" stroke="rgba(50,50,50,1)" stroke-width="2" fill-opacity="1" fill="#ffffff"></path><g id="SvgjsG1202"><text id="SvgjsText1203" font-family="微软雅黑" text-anchor="middle" font-size="13px" width="50px" fill="#323232" font-weight="400" align="middle" lineHeight="125%" anchor="middle" family="微软雅黑" size="13px" weight="400" font-style="" opacity="1" y="25.375" transform="rotate(0)"><tspan id="SvgjsTspan1204" dy="16" x="35"><tspan id="SvgjsTspan1205" style="text-decoration:;">管理员</tspan></tspan></text></g></g><g id="SvgjsG1206"><path id="SvgjsPath1207" d="M1297.502516344105 476.9874954223633L1297.502516344105 453.812154125435L1297.502516344105 453.812154125435L1297.502516344105 433.2368128285067" stroke="#323232" stroke-width="2" fill="none" marker-end="url(#SvgjsMarker1208)"></path><rect id="SvgjsRect1210" width="65" height="16" x="1265.002516344105" y="447.11215412543504" fill="#ffffff"></rect><text id="SvgjsText1211" font-family="微软雅黑" text-anchor="middle" font-size="13px" width="65px" fill="#323232" font-weight="400" align="top" lineHeight="16px" anchor="middle" family="微软雅黑" size="13px" weight="400" font-style="" opacity="1" y="445.48715412543504" transform="rotate(0)"><tspan id="SvgjsTspan1212" dy="16" x="1297.502516344105"><tspan id="SvgjsTspan1213" style="text-decoration:;">账号，密码</tspan></tspan></text></g><g id="SvgjsG1214"><path id="SvgjsPath1215" d="M1296.1624755859375 358.63681282850666L1296.1624755859375 338.562154125435L1296.1624755859375 338.562154125435L1296.1624755859375 321.0874954223633" stroke="#323232" stroke-width="2" fill="none" marker-end="url(#SvgjsMarker1216)"></path></g><g id="SvgjsG1218"><path id="SvgjsPath1219" d="M1260.1624755859375 515.8381780162199L1224.6262873804671 515.8381780162199L1224.6262873804671 515.8381780162199L1190.850058416829 515.8381780162199" stroke="#323232" stroke-width="2" fill="none" marker-end="url(#SvgjsMarker1220)"></path></g><g id="SvgjsG1222" transform="translate(938.6624755859375,528.9874954223633)"><path id="SvgjsPath1223" d="M 0 0L 93 0L 0 0M 0 20L 93 20L 0 20Z" stroke="rgba(50,50,50,1)" stroke-width="2" fill-opacity="1" fill="#ffffff"></path><path id="SvgjsPath1224" d="M 0 0L 93 0L 93 20L 0 20L 0 0Z" stroke="none" fill="none"></path><g id="SvgjsG1225"><text id="SvgjsText1226" font-family="微软雅黑" text-anchor="middle" font-size="13px" width="73px" fill="#323232" font-weight="400" align="middle" lineHeight="125%" anchor="middle" family="微软雅黑" size="13px" weight="400" font-style="" opacity="1" y="0.375" transform="rotate(0)"></text></g></g><g id="SvgjsG1227" transform="translate(926.6624755859375,496.9874954223633)"><path id="SvgjsPath1228" d="M 0 0L 117 0L 117 38L 0 38Z" stroke="none" fill="none"></path><g id="SvgjsG1229"><text id="SvgjsText1230" font-family="微软雅黑" text-anchor="middle" font-size="13px" width="117px" fill="#323232" font-weight="400" align="middle" lineHeight="125%" anchor="middle" family="微软雅黑" size="13px" weight="400" font-style="" opacity="1" y="9.375" transform="rotate(0)"><tspan id="SvgjsTspan1231" dy="16" x="58.5"><tspan id="SvgjsTspan1232" style="text-decoration:;">管理员数据</tspan></tspan></text></g></g><g id="SvgjsG1233"><path id="SvgjsPath1234" d="M1116.250058416829 515.9874954223633L1080.4562670013834 515.9874954223633L1080.4562670013834 515.9874954223633L1047.2624755859374 515.9874954223633" stroke="#323232" stroke-width="2" fill="none" marker-end="url(#SvgjsMarker1235)"></path></g><g id="SvgjsG1237"><path id="SvgjsPath1238" d="M1248.6624755859375 279.9874954223633L1188.9124755859375 279.9874954223633L1188.9124755859375 279.9874954223633L1131.7624755859374 279.9874954223633" stroke="#323232" stroke-width="2" fill="none" marker-end="url(#SvgjsMarker1239)"></path></g><g id="SvgjsG1241"><path id="SvgjsPath1242" d="M1248.6624755859375 314.37847191908133L1248.6624755859377 314.37847191908133L1131.3351955313487 377.2863639906421" stroke="#323232" stroke-width="2" fill="none" marker-end="url(#SvgjsMarker1243)"></path></g><g id="SvgjsG1245"><path id="SvgjsPath1246" d="M1248.6624755859375 246.8656340997664L1188.9124755859375 246.8656340997664L1188.9124755859375 175.63681282850672L1131.7624755859374 175.63681282850672" stroke="#323232" stroke-width="2" fill="none" marker-end="url(#SvgjsMarker1247)"></path></g><g id="SvgjsG1249"><path id="SvgjsPath1250" d="M1057.1624755859375 279.9874954223633L1020.9124755859375 279.9874954223633L1020.9124755859375 279.9874954223633L987.2624755859375 279.9874954223633" stroke="#323232" stroke-width="2" fill="none" marker-end="url(#SvgjsMarker1251)"></path></g><g id="SvgjsG1253" transform="translate(871.6624755859375,190.98749542236328)"><path id="SvgjsPath1254" d="M 0 0L 93 0L 0 0M 0 20L 93 20L 0 20Z" stroke="rgba(50,50,50,1)" stroke-width="2" fill-opacity="1" fill="#ffffff"></path><path id="SvgjsPath1255" d="M 0 0L 93 0L 93 20L 0 20L 0 0Z" stroke="none" fill="none"></path><g id="SvgjsG1256"><text id="SvgjsText1257" font-family="微软雅黑" text-anchor="middle" font-size="13px" width="73px" fill="#323232" font-weight="400" align="middle" lineHeight="125%" anchor="middle" family="微软雅黑" size="13px" weight="400" font-style="" opacity="1" y="0.375" transform="rotate(0)"></text></g></g><g id="SvgjsG1258" transform="translate(859.6624755859375,164.63681282850666)"><path id="SvgjsPath1259" d="M 0 0L 117 0L 117 38L 0 38Z" stroke="none" fill="none"></path><g id="SvgjsG1260"><text id="SvgjsText1261" font-family="微软雅黑" text-anchor="middle" font-size="13px" width="117px" fill="#323232" font-weight="400" align="middle" lineHeight="125%" anchor="middle" family="微软雅黑" size="13px" weight="400" font-style="" opacity="1" y="9.375" transform="rotate(0)"><tspan id="SvgjsTspan1262" dy="16" x="58.5"><tspan id="SvgjsTspan1263" style="text-decoration:;">广播数据</tspan></tspan></text></g></g><g id="SvgjsG1264" transform="translate(878.6624755859375,295.9874954223633)"><path id="SvgjsPath1265" d="M 0 0L 93 0L 0 0M 0 20L 93 20L 0 20Z" stroke="rgba(50,50,50,1)" stroke-width="2" fill-opacity="1" fill="#ffffff"></path><path id="SvgjsPath1266" d="M 0 0L 93 0L 93 20L 0 20L 0 0Z" stroke="none" fill="none"></path><g id="SvgjsG1267"><text id="SvgjsText1268" font-family="微软雅黑" text-anchor="middle" font-size="13px" width="73px" fill="#323232" font-weight="400" align="middle" lineHeight="125%" anchor="middle" family="微软雅黑" size="13px" weight="400" font-style="" opacity="1" y="0.375" transform="rotate(0)"></text></g></g><g id="SvgjsG1269" transform="translate(866.6624755859375,259.9874954223633)"><path id="SvgjsPath1270" d="M 0 0L 117 0L 117 38L 0 38Z" stroke="none" fill="none"></path><g id="SvgjsG1271"><text id="SvgjsText1272" font-family="微软雅黑" text-anchor="middle" font-size="13px" width="117px" fill="#323232" font-weight="400" align="middle" lineHeight="125%" anchor="middle" family="微软雅黑" size="13px" weight="400" font-style="" opacity="1" y="9.375" transform="rotate(0)"><tspan id="SvgjsTspan1273" dy="16" x="58.5"><tspan id="SvgjsTspan1274" style="text-decoration:;">航班数据</tspan></tspan></text></g></g><g id="SvgjsG1275" transform="translate(878.6624755859375,392.9874954223633)"><path id="SvgjsPath1276" d="M 0 0L 93 0L 0 0M 0 20L 93 20L 0 20Z" stroke="rgba(50,50,50,1)" stroke-width="2" fill-opacity="1" fill="#ffffff"></path><path id="SvgjsPath1277" d="M 0 0L 93 0L 93 20L 0 20L 0 0Z" stroke="none" fill="none"></path><g id="SvgjsG1278"><text id="SvgjsText1279" font-family="微软雅黑" text-anchor="middle" font-size="13px" width="73px" fill="#323232" font-weight="400" align="middle" lineHeight="125%" anchor="middle" family="微软雅黑" size="13px" weight="400" font-style="" opacity="1" y="0.375" transform="rotate(0)"></text></g></g><g id="SvgjsG1280" transform="translate(872.6624755859375,348.4874954223633)"><path id="SvgjsPath1281" d="M 0 0L 105 0L 105 61L 0 61Z" stroke="none" fill="none"></path><g id="SvgjsG1282"><text id="SvgjsText1283" font-family="微软雅黑" text-anchor="middle" font-size="13px" width="105px" fill="#323232" font-weight="400" align="middle" lineHeight="125%" anchor="middle" family="微软雅黑" size="13px" weight="400" font-style="" opacity="1" y="20.875" transform="rotate(0)"><tspan id="SvgjsTspan1284" dy="16" x="52.5"><tspan id="SvgjsTspan1285" style="text-decoration:;">广告数据</tspan></tspan></text></g></g><g id="SvgjsG1286"><path id="SvgjsPath1287" d="M1057.1624755859375 378.9874954223633L1017.6624755859375 378.9874954223633L1017.6624755859375 378.9874954223633L981.2624755859375 378.9874954223633" stroke="#323232" stroke-width="2" fill="none" marker-end="url(#SvgjsMarker1288)"></path></g><g id="SvgjsG1290"><path id="SvgjsPath1291" d="M1057.1624755859375 179.77162511519606L1017.4124755859375 179.77162511519606L1017.4124755859375 179.77162511519606L980.2624755859375 179.77162511519606" stroke="#323232" stroke-width="2" fill="none" marker-end="url(#SvgjsMarker1292)"></path></g><g id="SvgjsG1294" transform="translate(745.9124755859375,190.98749542236328)"><path id="SvgjsPath1295" d="M 97.5 0Q 88.5 0 88.5 9L 88.5 106Q 88.5 115 75.5 115Q 88.5 115 88.5 124L 88.5 221Q 88.5 230 97.5 230" stroke="rgba(50,50,50,1)" stroke-width="2" fill="none"></path><path id="SvgjsPath1296" d="M 0 0L 97.5 0L 97.5 230L 0 230Z" stroke="none" fill="none"></path><g id="SvgjsG1297"><text id="SvgjsText1298" font-family="微软雅黑" text-anchor="end" font-size="13px" width="71px" fill="#323232" font-weight="400" align="middle" lineHeight="125%" anchor="end" family="微软雅黑" size="13px" weight="400" font-style="" opacity="1" y="105.375" transform="rotate(0)"></text></g></g><g id="SvgjsG1299"><path id="SvgjsPath1300" d="M817.412467956543 304.2374954223633C 831.162467956543 24.987503051757812 591.162467956543 26.237503051757812 346.81754931898894 163.7538687046567" stroke="#323232" stroke-width="2" fill="none" marker-end="url(#SvgjsMarker1301)"></path><rect id="SvgjsRect1303" width="91" height="16" x="633.4006031268488" y="69.70829780469586" fill="#ffffff"></rect><text id="SvgjsText1304" font-family="微软雅黑" text-anchor="middle" font-size="13px" width="91px" fill="#323232" font-weight="400" align="top" lineHeight="16px" anchor="middle" family="微软雅黑" size="13px" weight="400" font-style="" opacity="1" y="68.08329780469586" transform="rotate(0)"><tspan id="SvgjsTspan1305" dy="16" x="678.9006031268488"><tspan id="SvgjsTspan1306" style="text-decoration:;">读取数据库数据</tspan></tspan></text></g><g id="SvgjsG1307" transform="translate(1261.1624755859375,359.63681282850666)"><path id="SvgjsPath1308" d="M 0 35C 0 -11.666666666666666 70 -11.666666666666666 70 35C 70 81.66666666666667 0 81.66666666666667 0 35Z" stroke="rgba(50,50,50,1)" stroke-width="2" fill-opacity="1" fill="#ffffff"></path><g id="SvgjsG1309"><text id="SvgjsText1310" font-family="微软雅黑" text-anchor="middle" font-size="13px" width="50px" fill="#323232" font-weight="400" align="middle" lineHeight="125%" anchor="middle" family="微软雅黑" size="13px" weight="400" font-style="" opacity="1" y="16.875" transform="rotate(0)"><tspan id="SvgjsTspan1311" dy="16" x="35"><tspan id="SvgjsTspan1312" style="text-decoration:;">管理员</tspan></tspan><tspan id="SvgjsTspan1313" dy="16" x="35"><tspan id="SvgjsTspan1314" style="text-decoration:;">登录</tspan></tspan></text></g></g><g id="SvgjsG1315" transform="translate(1117.250058416829,480.9874954223633)"><path id="SvgjsPath1316" d="M 0 35C 0 -11.666666666666666 70 -11.666666666666666 70 35C 70 81.66666666666667 0 81.66666666666667 0 35Z" stroke="rgba(50,50,50,1)" stroke-width="2" fill-opacity="1" fill="#ffffff"></path><g id="SvgjsG1317"><text id="SvgjsText1318" font-family="微软雅黑" text-anchor="middle" font-size="13px" width="50px" fill="#323232" font-weight="400" align="middle" lineHeight="125%" anchor="middle" family="微软雅黑" size="13px" weight="400" font-style="" opacity="1" y="16.875" transform="rotate(0)"><tspan id="SvgjsTspan1319" dy="16" x="35"><tspan id="SvgjsTspan1320" style="text-decoration:;">管理员</tspan></tspan><tspan id="SvgjsTspan1321" dy="16" x="35"><tspan id="SvgjsTspan1322" style="text-decoration:;">授权</tspan></tspan></text></g></g><g id="SvgjsG1323" transform="translate(1058.1624755859375,140.63681282850666)"><path id="SvgjsPath1324" d="M 0 35C 0 -11.666666666666666 70 -11.666666666666666 70 35C 70 81.66666666666667 0 81.66666666666667 0 35Z" stroke="rgba(50,50,50,1)" stroke-width="2" fill-opacity="1" fill="#ffffff"></path><g id="SvgjsG1325"><text id="SvgjsText1326" font-family="微软雅黑" text-anchor="middle" font-size="13px" width="50px" fill="#323232" font-weight="400" align="middle" lineHeight="125%" anchor="middle" family="微软雅黑" size="13px" weight="400" font-style="" opacity="1" y="16.875" transform="rotate(0)"><tspan id="SvgjsTspan1327" dy="16" x="35"><tspan id="SvgjsTspan1328" style="text-decoration:;">广播信</tspan></tspan><tspan id="SvgjsTspan1329" dy="16" x="35"><tspan id="SvgjsTspan1330" style="text-decoration:;">息添加</tspan></tspan></text></g></g><g id="SvgjsG1331" transform="translate(1058.1624755859375,343.9874954223633)"><path id="SvgjsPath1332" d="M 0 35C 0 -11.666666666666666 70 -11.666666666666666 70 35C 70 81.66666666666667 0 81.66666666666667 0 35Z" stroke="rgba(50,50,50,1)" stroke-width="2" fill-opacity="1" fill="#ffffff"></path><g id="SvgjsG1333"><text id="SvgjsText1334" font-family="微软雅黑" text-anchor="middle" font-size="13px" width="50px" fill="#323232" font-weight="400" align="middle" lineHeight="125%" anchor="middle" family="微软雅黑" size="13px" weight="400" font-style="" opacity="1" y="16.875" transform="rotate(0)"><tspan id="SvgjsTspan1335" dy="16" x="35"><tspan id="SvgjsTspan1336" style="text-decoration:;">广告信</tspan></tspan><tspan id="SvgjsTspan1337" dy="16" x="35"><tspan id="SvgjsTspan1338" style="text-decoration:;">息添加</tspan></tspan></text></g></g><g id="SvgjsG1339" transform="translate(1058.1624755859375,244.98749542236328)"><path id="SvgjsPath1340" d="M 0 35C 0 -11.666666666666666 70 -11.666666666666666 70 35C 70 81.66666666666667 0 81.66666666666667 0 35Z" stroke="rgba(50,50,50,1)" stroke-width="2" fill-opacity="1" fill="#ffffff"></path><g id="SvgjsG1341"><text id="SvgjsText1342" font-family="微软雅黑" text-anchor="middle" font-size="13px" width="50px" fill="#323232" font-weight="400" align="middle" lineHeight="125%" anchor="middle" family="微软雅黑" size="13px" weight="400" font-style="" opacity="1" y="16.875" transform="rotate(0)"><tspan id="SvgjsTspan1343" dy="16" x="35"><tspan id="SvgjsTspan1344" style="text-decoration:;">航班信</tspan></tspan><tspan id="SvgjsTspan1345" dy="16" x="35"><tspan id="SvgjsTspan1346" style="text-decoration:;">息添加</tspan></tspan></text></g></g><g id="SvgjsG1347" transform="translate(619.6624755859376,105.23749923706056)"><path id="SvgjsPath1348" d="M 0 35C 0 -11.666666666666666 70 -11.666666666666666 70 35C 70 81.66666666666667 0 81.66666666666667 0 35Z" stroke="rgba(50,50,50,1)" stroke-width="2" fill-opacity="1" fill="#ffffff"></path><g id="SvgjsG1349"><text id="SvgjsText1350" font-family="微软雅黑" text-anchor="middle" font-size="13px" width="50px" fill="#323232" font-weight="400" align="middle" lineHeight="125%" anchor="middle" family="微软雅黑" size="13px" weight="400" font-style="" opacity="1" y="16.875" transform="rotate(0)"><tspan id="SvgjsTspan1351" dy="16" x="35"><tspan id="SvgjsTspan1352" style="text-decoration:;">留言生</tspan></tspan><tspan id="SvgjsTspan1353" dy="16" x="35"><tspan id="SvgjsTspan1354" style="text-decoration:;">成</tspan></tspan></text></g></g><g id="SvgjsG1355" transform="translate(514.1624755859375,165.9874954223633)"><path id="SvgjsPath1356" d="M 0 35C 0 -11.666666666666666 70 -11.666666666666666 70 35C 70 81.66666666666667 0 81.66666666666667 0 35Z" stroke="rgba(50,50,50,1)" stroke-width="2" fill-opacity="1" fill="#ffffff"></path><g id="SvgjsG1357"><text id="SvgjsText1358" font-family="微软雅黑" text-anchor="middle" font-size="13px" width="50px" fill="#323232" font-weight="400" align="middle" lineHeight="125%" anchor="middle" family="微软雅黑" size="13px" weight="400" font-style="" opacity="1" y="16.875" transform="rotate(0)"><tspan id="SvgjsTspan1359" dy="16" x="35"><tspan id="SvgjsTspan1360" style="text-decoration:;">订单生</tspan></tspan><tspan id="SvgjsTspan1361" dy="16" x="35"><tspan id="SvgjsTspan1362" style="text-decoration:;">成</tspan></tspan></text></g></g><g id="SvgjsG1363" transform="translate(386.6624755859375,343.9874954223633)"><path id="SvgjsPath1364" d="M 0 35C 0 -11.666666666666666 70 -11.666666666666666 70 35C 70 81.66666666666667 0 81.66666666666667 0 35Z" stroke="rgba(50,50,50,1)" stroke-width="2" fill-opacity="1" fill="#ffffff"></path><g id="SvgjsG1365"><text id="SvgjsText1366" font-family="微软雅黑" text-anchor="middle" font-size="13px" width="50px" fill="#323232" font-weight="400" align="middle" lineHeight="125%" anchor="middle" family="微软雅黑" size="13px" weight="400" font-style="" opacity="1" y="16.875" transform="rotate(0)"><tspan id="SvgjsTspan1367" dy="16" x="35"><tspan id="SvgjsTspan1368" style="text-decoration:;">会员注</tspan></tspan><tspan id="SvgjsTspan1369" dy="16" x="35"><tspan id="SvgjsTspan1370" style="text-decoration:;">册</tspan></tspan></text></g></g><g id="SvgjsG1371" transform="translate(154.41247558593753,503.9874954223633)"><path id="SvgjsPath1372" d="M 0 35C 0 -11.666666666666666 70 -11.666666666666666 70 35C 70 81.66666666666667 0 81.66666666666667 0 35Z" stroke="rgba(50,50,50,1)" stroke-width="2" fill-opacity="1" fill="#ffffff"></path><g id="SvgjsG1373"><text id="SvgjsText1374" font-family="微软雅黑" text-anchor="middle" font-size="13px" width="50px" fill="#323232" font-weight="400" align="middle" lineHeight="125%" anchor="middle" family="微软雅黑" size="13px" weight="400" font-style="" opacity="1" y="16.875" transform="rotate(0)"><tspan id="SvgjsTspan1375" dy="16" x="35"><tspan id="SvgjsTspan1376" style="text-decoration:;">用户注</tspan></tspan><tspan id="SvgjsTspan1377" dy="16" x="35"><tspan id="SvgjsTspan1378" style="text-decoration:;">册</tspan></tspan></text></g></g><g id="SvgjsG1379" transform="translate(266.3512127115818,314.98749542236317)"><path id="SvgjsPath1380" d="M 0 35C 0 -11.666666666666666 70 -11.666666666666666 70 35C 70 81.66666666666667 0 81.66666666666667 0 35Z" stroke="rgba(50,50,50,1)" stroke-width="2" fill-opacity="1" fill="#ffffff"></path><g id="SvgjsG1381"><text id="SvgjsText1382" font-family="微软雅黑" text-anchor="middle" font-size="13px" width="50px" fill="#323232" font-weight="400" align="middle" lineHeight="125%" anchor="middle" family="微软雅黑" size="13px" weight="400" font-style="" opacity="1" y="16.875" transform="rotate(0)"><tspan id="SvgjsTspan1383" dy="16" x="35"><tspan id="SvgjsTspan1384" style="text-decoration:;">用户登</tspan></tspan><tspan id="SvgjsTspan1385" dy="16" x="35"><tspan id="SvgjsTspan1386" style="text-decoration:;">录</tspan></tspan></text></g></g><g id="SvgjsG1387"><path id="SvgjsPath1388" d="M666.2120542978995 306.9862656418433C 666.1624755859375 549.1204045273797 1273.912483215332 559.1204064347284 1273.7337085317502 319.58305564692915" stroke="#323232" stroke-width="2" fill="none" marker-end="url(#SvgjsMarker1389)"></path><rect id="SvgjsRect1391" width="65" height="16" x="937.5213299041823" y="485.9114692718871" fill="#ffffff"></rect><text id="SvgjsText1392" font-family="微软雅黑" text-anchor="middle" font-size="13px" width="65px" fill="#323232" font-weight="400" align="top" lineHeight="16px" anchor="middle" family="微软雅黑" size="13px" weight="400" font-style="" opacity="1" y="484.2864692718871" transform="rotate(0)"><tspan id="SvgjsTspan1393" dy="16" x="970.0213299041823"><tspan id="SvgjsTspan1394" style="text-decoration:;">管理员查看</tspan></tspan></text></g></svg>